<?xml version="1.0" encoding="UTF-8" standalone="no"?>
<!DOCTYPE svg PUBLIC "-//W3C//DTD SVG 1.1//EN" "http://www.w3.org/Graphics/SVG/1.1/DTD/svg11.dtd">
<svg width="100%" height="100%" viewBox="0 0 359 66" version="1.1" xmlns="http://www.w3.org/2000/svg" xmlns:xlink="http://www.w3.org/1999/xlink" xml:space="preserve" xmlns:serif="http://www.serif.com/" style="fill-rule:evenodd;clip-rule:evenodd;stroke-linejoin:round;stroke-miterlimit:2;">
    <g transform="matrix(1,0,0,1,-731.898,-322.302)">
        <g transform="matrix(0.740741,0,0,0.424242,521.111,262.908)">
            <g transform="matrix(97.2,0,0,169.714,279.057,267.451)">
                <path d="M0.642,-0.178C0.642,-0.166 0.64,-0.153 0.637,-0.14C0.635,-0.127 0.63,-0.114 0.625,-0.1C0.619,-0.087 0.611,-0.075 0.602,-0.063C0.593,-0.05 0.581,-0.04 0.568,-0.031C0.555,-0.021 0.54,-0.014 0.522,-0.008C0.505,-0.003 0.486,-0 0.464,-0L0.235,-0C0.223,-0 0.21,-0.001 0.197,-0.004C0.183,-0.007 0.17,-0.011 0.157,-0.017C0.144,-0.023 0.131,-0.031 0.119,-0.04C0.107,-0.049 0.096,-0.06 0.087,-0.073C0.078,-0.087 0.07,-0.102 0.065,-0.119C0.059,-0.137 0.057,-0.156 0.057,-0.178L0.057,-0.751L0.184,-0.751L0.184,-0.178C0.184,-0.163 0.188,-0.15 0.198,-0.141C0.208,-0.132 0.22,-0.127 0.235,-0.127L0.464,-0.127C0.48,-0.127 0.492,-0.132 0.501,-0.141C0.51,-0.151 0.515,-0.163 0.515,-0.178L0.515,-0.35C0.515,-0.366 0.51,-0.378 0.5,-0.387C0.491,-0.396 0.479,-0.401 0.464,-0.401L0.235,-0.401L0.235,-0.528L0.464,-0.528C0.476,-0.528 0.489,-0.526 0.502,-0.524C0.515,-0.521 0.529,-0.517 0.542,-0.511C0.555,-0.505 0.568,-0.497 0.58,-0.488C0.592,-0.479 0.602,-0.468 0.611,-0.454C0.62,-0.441 0.628,-0.426 0.633,-0.409C0.639,-0.391 0.642,-0.372 0.642,-0.35L0.642,-0.178Z" style="fill:rgb(16,16,16);fill-rule:nonzero;"/>
            </g>
            <g transform="matrix(97.2,0,0,169.714,346.167,267.451)">
                <path d="M0.188,-0.636L0.062,-0.636L0.062,-0.751L0.188,-0.751L0.188,-0.636ZM0.188,-0L0.062,-0L0.062,-0.528L0.188,-0.528L0.188,-0Z" style="fill:rgb(16,16,16);fill-rule:nonzero;"/>
            </g>
            <g transform="matrix(97.2,0,0,169.714,370.515,267.451)">
                <path d="M0.604,-0.175C0.604,-0.157 0.601,-0.138 0.595,-0.118C0.589,-0.098 0.579,-0.079 0.565,-0.061C0.551,-0.044 0.533,-0.029 0.511,-0.018C0.489,-0.006 0.462,-0 0.43,-0L0.201,-0C0.183,-0 0.164,-0.003 0.144,-0.009C0.123,-0.015 0.105,-0.025 0.087,-0.039C0.07,-0.053 0.055,-0.071 0.043,-0.094C0.032,-0.116 0.026,-0.143 0.026,-0.175C0.026,-0.192 0.029,-0.211 0.035,-0.232C0.041,-0.252 0.051,-0.271 0.065,-0.289C0.079,-0.306 0.097,-0.321 0.119,-0.333C0.142,-0.344 0.169,-0.35 0.201,-0.35L0.43,-0.35L0.43,-0.229L0.201,-0.229C0.183,-0.229 0.17,-0.224 0.161,-0.213C0.151,-0.203 0.146,-0.189 0.146,-0.174C0.146,-0.157 0.152,-0.144 0.163,-0.135C0.174,-0.126 0.187,-0.121 0.202,-0.121L0.43,-0.121C0.447,-0.121 0.46,-0.126 0.47,-0.137C0.479,-0.147 0.484,-0.16 0.484,-0.176L0.484,-0.353C0.484,-0.37 0.479,-0.383 0.469,-0.393C0.458,-0.402 0.445,-0.407 0.43,-0.407L0.151,-0.407L0.151,-0.528L0.43,-0.528C0.447,-0.528 0.466,-0.525 0.487,-0.519C0.507,-0.512 0.526,-0.502 0.543,-0.489C0.561,-0.475 0.575,-0.457 0.587,-0.434C0.599,-0.412 0.604,-0.385 0.604,-0.353L0.604,-0.175Z" style="fill:rgb(16,16,16);fill-rule:nonzero;"/>
            </g>
            <g transform="matrix(97.2,0,0,169.714,434.017,267.451)">
                <path d="M0.57,-0.178C0.57,-0.156 0.567,-0.137 0.562,-0.119C0.556,-0.102 0.549,-0.087 0.54,-0.073C0.53,-0.06 0.52,-0.049 0.508,-0.04C0.496,-0.031 0.483,-0.023 0.47,-0.017C0.457,-0.011 0.443,-0.007 0.43,-0.004C0.416,-0.001 0.404,-0 0.392,-0L0.048,-0L0.048,-0.127L0.391,-0.127C0.408,-0.127 0.421,-0.131 0.43,-0.14C0.438,-0.149 0.443,-0.162 0.443,-0.178C0.441,-0.212 0.424,-0.229 0.392,-0.229L0.195,-0.229C0.167,-0.229 0.143,-0.234 0.124,-0.244C0.104,-0.253 0.088,-0.266 0.076,-0.28C0.064,-0.295 0.055,-0.311 0.05,-0.328C0.044,-0.345 0.042,-0.36 0.042,-0.375C0.042,-0.403 0.047,-0.427 0.057,-0.447C0.067,-0.466 0.079,-0.482 0.095,-0.494C0.11,-0.506 0.127,-0.514 0.145,-0.52C0.162,-0.525 0.179,-0.528 0.195,-0.528L0.507,-0.528L0.507,-0.401L0.196,-0.401C0.189,-0.401 0.184,-0.4 0.18,-0.399C0.177,-0.397 0.174,-0.395 0.172,-0.393C0.17,-0.39 0.169,-0.388 0.169,-0.385C0.169,-0.382 0.168,-0.38 0.168,-0.377C0.169,-0.372 0.17,-0.368 0.171,-0.365C0.173,-0.362 0.175,-0.36 0.177,-0.358C0.18,-0.357 0.183,-0.356 0.186,-0.356C0.189,-0.356 0.192,-0.356 0.195,-0.356L0.392,-0.356C0.424,-0.356 0.452,-0.35 0.475,-0.338C0.497,-0.327 0.516,-0.312 0.53,-0.294C0.544,-0.276 0.554,-0.257 0.56,-0.236C0.567,-0.215 0.57,-0.196 0.57,-0.178Z" style="fill:rgb(16,16,16);fill-rule:nonzero;"/>
            </g>
            <g transform="matrix(97.2,0,0,169.714,492.252,267.451)">
                <path d="M0.642,-0.178C0.642,-0.156 0.639,-0.137 0.633,-0.119C0.628,-0.102 0.62,-0.087 0.611,-0.073C0.602,-0.06 0.592,-0.049 0.58,-0.04C0.568,-0.031 0.555,-0.023 0.542,-0.017C0.529,-0.011 0.515,-0.007 0.502,-0.004C0.489,-0.001 0.476,-0 0.464,-0L0.235,-0L0.235,-0.127L0.464,-0.127C0.481,-0.127 0.493,-0.131 0.502,-0.14C0.51,-0.149 0.515,-0.162 0.515,-0.178L0.515,-0.349C0.515,-0.367 0.51,-0.38 0.502,-0.388C0.493,-0.397 0.48,-0.401 0.464,-0.401L0.236,-0.401C0.219,-0.401 0.206,-0.397 0.197,-0.388C0.188,-0.379 0.184,-0.367 0.184,-0.35L0.184,0.165L0.057,0.165L0.057,-0.35C0.057,-0.372 0.059,-0.391 0.065,-0.409C0.07,-0.426 0.078,-0.441 0.087,-0.454C0.096,-0.468 0.107,-0.479 0.119,-0.488C0.131,-0.497 0.144,-0.505 0.157,-0.511C0.17,-0.517 0.184,-0.521 0.197,-0.524C0.211,-0.526 0.223,-0.528 0.235,-0.528L0.464,-0.528C0.486,-0.528 0.505,-0.525 0.522,-0.52C0.54,-0.514 0.555,-0.507 0.568,-0.498C0.581,-0.488 0.593,-0.478 0.602,-0.466C0.611,-0.454 0.619,-0.441 0.625,-0.428C0.63,-0.415 0.635,-0.402 0.637,-0.388C0.64,-0.375 0.642,-0.362 0.642,-0.35L0.642,-0.178Z" style="fill:rgb(16,16,16);fill-rule:nonzero;"/>
            </g>
            <g transform="matrix(97.2,0,0,169.714,559.362,267.451)">
                <path d="M0.634,-0.178C0.634,-0.156 0.631,-0.137 0.625,-0.119C0.62,-0.102 0.613,-0.087 0.604,-0.073C0.594,-0.06 0.584,-0.049 0.572,-0.04C0.56,-0.031 0.547,-0.023 0.534,-0.017C0.521,-0.011 0.507,-0.007 0.494,-0.004C0.48,-0.001 0.468,-0 0.456,-0L0.227,-0C0.209,-0 0.19,-0.003 0.169,-0.009C0.148,-0.015 0.129,-0.026 0.111,-0.04C0.093,-0.054 0.079,-0.072 0.067,-0.095C0.055,-0.118 0.049,-0.145 0.049,-0.178L0.049,-0.35C0.049,-0.383 0.055,-0.41 0.067,-0.433C0.079,-0.455 0.093,-0.474 0.111,-0.488C0.129,-0.502 0.148,-0.512 0.169,-0.519C0.19,-0.525 0.209,-0.528 0.227,-0.528L0.456,-0.528C0.488,-0.528 0.516,-0.522 0.539,-0.51C0.561,-0.499 0.58,-0.484 0.594,-0.466C0.608,-0.448 0.618,-0.429 0.624,-0.408C0.631,-0.387 0.634,-0.368 0.634,-0.35L0.634,-0.178ZM0.507,-0.349C0.507,-0.367 0.502,-0.38 0.494,-0.388C0.485,-0.397 0.472,-0.401 0.456,-0.401L0.228,-0.401C0.211,-0.401 0.198,-0.397 0.189,-0.388C0.18,-0.379 0.176,-0.367 0.176,-0.35L0.176,-0.178C0.176,-0.162 0.18,-0.149 0.189,-0.14C0.198,-0.131 0.211,-0.127 0.228,-0.127L0.456,-0.127C0.473,-0.127 0.486,-0.131 0.494,-0.14C0.503,-0.149 0.507,-0.162 0.507,-0.178L0.507,-0.349Z" style="fill:rgb(16,16,16);fill-rule:nonzero;"/>
            </g>
            <g transform="matrix(97.2,0,0,169.714,625.665,267.451)">
                <path d="M0.188,-0.636L0.062,-0.636L0.062,-0.751L0.188,-0.751L0.188,-0.636ZM0.188,-0L0.062,-0L0.062,-0.528L0.188,-0.528L0.188,-0Z" style="fill:rgb(16,16,16);fill-rule:nonzero;"/>
            </g>
            <g transform="matrix(97.2,0,0,169.714,650.012,267.451)">
                <path d="M0.645,-0L0.518,-0L0.518,-0.293C0.518,-0.31 0.515,-0.324 0.509,-0.338C0.503,-0.351 0.496,-0.362 0.486,-0.372C0.476,-0.381 0.465,-0.388 0.451,-0.393C0.438,-0.398 0.424,-0.401 0.409,-0.401L0.187,-0.401L0.187,-0L0.06,-0L0.06,-0.465C0.06,-0.474 0.061,-0.482 0.064,-0.49C0.068,-0.497 0.072,-0.504 0.078,-0.51C0.084,-0.515 0.091,-0.52 0.099,-0.523C0.106,-0.526 0.115,-0.528 0.124,-0.528L0.41,-0.528C0.426,-0.528 0.442,-0.526 0.46,-0.522C0.478,-0.519 0.496,-0.513 0.513,-0.505C0.53,-0.497 0.547,-0.487 0.563,-0.475C0.579,-0.463 0.593,-0.448 0.605,-0.43C0.617,-0.413 0.627,-0.393 0.634,-0.37C0.641,-0.347 0.645,-0.322 0.645,-0.293L0.645,-0Z" style="fill:rgb(16,16,16);fill-rule:nonzero;"/>
            </g>
            <g transform="matrix(97.2,0,0,169.714,716.173,267.451)">
                <path d="M0.54,-0.401L0.318,-0.401L0.318,-0L0.189,-0L0.189,-0.401L0.024,-0.401L0.024,-0.528L0.189,-0.528L0.189,-0.7L0.318,-0.7L0.318,-0.528L0.54,-0.528L0.54,-0.401Z" style="fill:rgb(16,16,16);fill-rule:nonzero;"/>
            </g>
        </g>
    </g>
</svg>
